<svg xmlns="http://www.w3.org/2000/svg" width="1800" height="620" viewBox="0 0 1800 620" role="img" aria-labelledby="title desc">
  <title id="title">Good design shines equally across every discipline.</title>
  <desc id="desc">Replaceable one-colour coral dirty-ink statement artwork for the Work page.</desc>
  <!-- Replace this SVG with a custom generated or manually drawn transparent statement image later if desired. -->
  <rect width="1800" height="620" fill="none"/>
  <defs>
    <filter id="ink-edge" x="-8%" y="-16%" width="116%" height="132%">
      <feTurbulence type="fractalNoise" baseFrequency="0.018 0.145" numOctaves="4" seed="81" result="grain"/>
      <feDisplacementMap in="SourceGraphic" in2="grain" scale="7" xChannelSelector="R" yChannelSelector="G" result="wobble"/>
      <feMorphology in="wobble" operator="dilate" radius="0.34" result="spread"/>
      <feComposite in="spread" in2="wobble" operator="over"/>
    </filter>
    <mask id="dry-brush-breaks">
      <rect width="1800" height="620" fill="white"/>
      <g fill="black" opacity=".23">
        <ellipse cx="182" cy="192" rx="42" ry="7" transform="rotate(-10 182 192)"/>
        <ellipse cx="385" cy="124" rx="20" ry="4" transform="rotate(18 385 124)"/>
        <ellipse cx="585" cy="234" rx="58" ry="7" transform="rotate(-8 585 234)"/>
        <ellipse cx="822" cy="174" rx="34" ry="5" transform="rotate(14 822 174)"/>
        <ellipse cx="1010" cy="300" rx="52" ry="7" transform="rotate(-11 1010 300)"/>
        <ellipse cx="1265" cy="213" rx="30" ry="5" transform="rotate(17 1265 213)"/>
        <ellipse cx="1465" cy="378" rx="72" ry="8" transform="rotate(-7 1465 378)"/>
        <ellipse cx="350" cy="404" rx="46" ry="6" transform="rotate(13 350 404)"/>
        <ellipse cx="760" cy="458" rx="70" ry="8" transform="rotate(-13 760 458)"/>
        <ellipse cx="1130" cy="500" rx="48" ry="6" transform="rotate(8 1130 500)"/>
        <circle cx="146" cy="265" r="5"/>
        <circle cx="272" cy="166" r="4"/>
        <circle cx="492" cy="323" r="6"/>
        <circle cx="660" cy="112" r="4"/>
        <circle cx="916" cy="408" r="5"/>
        <circle cx="1088" cy="162" r="4"/>
        <circle cx="1338" cy="332" r="6"/>
        <circle cx="1550" cy="254" r="5"/>
        <circle cx="470" cy="500" r="4"/>
        <circle cx="1390" cy="515" r="4"/>
      </g>
      <g stroke="black" stroke-linecap="round" opacity=".16">
        <path d="M105 252 C310 232 500 246 710 222" stroke-width="3" fill="none"/>
        <path d="M220 430 C485 396 760 422 1020 385" stroke-width="3.5" fill="none"/>
        <path d="M895 530 C1080 503 1305 524 1512 490" stroke-width="4" fill="none"/>
      </g>
    </mask>
  </defs>
  <g fill="#ff7048" filter="url(#ink-edge)" mask="url(#dry-brush-breaks)">
      <path d="M428.84 153.58C433.55 153.03 438.1 152.86 441.59 153.21C443.97 153.58 444.29 152.29 443.31 150.3C440.76 144.83 435.49 140.81 426.38 141.01C415.27 141.18 401.58 145.74 387.34 145.91C385.18 145.91 384.65 147.02 385.62 148.85C388.56 154.69 394.36 158.5 403.45 157.59C407.8 157.22 413.6 156.14 419.4 155.03C409.06 177.11 388.2 190.79 377.84 181.47C370.32 174.75 368.8 147.02 384.85 121.12C401.25 94.68 430.42 79.01 436.47 85.02C440.63 89.04 434.23 99.24 432.19 108.36C430.11 117.48 433.23 122.78 437.52 125.68C439.58 127.51 440.82 126.22 441.31 124.77C443.14 119.47 445.8 112.18 447.82 107.28C450.18 101.43 450.35 96.51 448.54 91.41C446.93 86.65 443.83 82.09 438.6 78.44C432.23 73.88 424.03 74.08 413.95 77.36C393.58 84.11 357.96 118.76 359.7 157.96C360.39 172.92 366.15 181.13 372.9 186.03C383.2 193.69 394.63 192.24 403.46 189.68C412.49 187.14 434.17 170.73 428.84 153.58ZM507.1 149.39C507.78 148.48 507.75 147.56 506.5 147.56C505.02 147.56 503.95 147.93 502.86 147.93C502.98 146.48 502.94 145.2 503.06 143.75C503.71 130.61 498.2 129.33 493.81 123.69C489.99 118.76 486.83 117.11 481.17 117.48C470.25 118.22 459.51 128.79 453.02 141.18C445.33 155.77 443.15 171.64 451.52 182.21C459.15 191.7 468.29 192.41 474.8 190.25C488.12 185.69 498.98 167.25 502.26 151.75C504.07 151.58 505.87 150.84 507.1 149.39ZM491.23 144.46C488.23 141.72 486.05 136.45 486.79 131.52C487.52 126.22 491.13 125.14 492.24 130.98C492.9 134.26 492.52 138.82 491.23 144.46ZM490.15 149.39C488.82 153.78 486.84 158.88 484.28 163.98C475.92 180.76 465.03 187.14 459.76 182.95C454.88 178.93 457.03 162.15 464.21 148.3C467.79 141.35 472.88 135.34 477.66 131.15C478.07 137.9 482.68 144.29 486.6 147.19C487.71 148.11 488.85 148.85 490.15 149.39ZM567.64 149.39C568.32 148.48 568.29 147.56 567.04 147.56C565.56 147.56 564.49 147.93 563.4 147.93C563.52 146.48 563.48 145.2 563.6 143.75C564.25 130.61 558.74 129.33 554.35 123.69C550.53 118.76 547.37 117.11 541.71 117.48C530.79 118.22 520.05 128.79 513.56 141.18C505.87 155.77 503.69 171.64 512.06 182.21C519.69 191.7 528.83 192.41 535.34 190.25C548.66 185.69 559.52 167.25 562.8 151.75C564.62 151.58 566.41 150.84 567.64 149.39ZM551.77 144.46C548.77 141.72 546.59 136.45 547.33 131.52C548.06 126.22 551.67 125.14 552.78 130.98C553.44 134.26 553.06 138.82 551.77 144.46ZM550.69 149.39C549.36 153.78 547.38 158.88 544.82 163.98C536.46 180.76 525.57 187.14 520.3 182.95C515.43 178.93 517.57 162.15 524.75 148.3C528.33 141.35 533.42 135.34 538.2 131.15C538.61 137.9 543.22 144.29 547.14 147.19C548.25 148.11 549.39 148.85 550.69 149.39ZM617.01 168.9C625.46 149.56 641.9 119.47 650.1 103.8C657.28 90.12 657.55 82.29 654.8 76.28C653.81 73.88 652.15 73.71 650.41 76.28C644.19 85.56 631.18 110.35 622.01 129.16C621.94 122.4 618.1 116.73 610.63 116.73C601.51 116.73 587.21 124.94 573.54 146.11C559.34 167.99 563.46 191.16 580.41 191.16C588.99 191.16 596.96 184.4 602.51 177.11C602.81 185.69 607.94 191.16 617.81 191.7C627.86 192.24 638.83 182.58 643.38 172.55C645.61 167.62 645.24 162.89 644.47 161.24C643.68 159.79 642.4 159.79 641.54 161.41C635.6 174 626.2 186.23 618.72 186.6C612.55 186.94 612.46 179.48 617.01 168.9ZM613.86 126.05C619.17 126.22 616.83 137.71 606.97 157.96C598.98 174.55 589.5 185.32 582.19 185.12C575.09 184.95 576.53 169.08 585.84 153.4C595.31 137.36 608.21 125.85 613.86 126.05ZM730.26 168.9C738.7 149.56 755.14 119.47 763.34 103.8C770.52 90.12 770.79 82.29 768.04 76.28C767.05 73.88 765.39 73.71 763.65 76.28C757.43 85.56 744.42 110.35 735.25 129.16C735.18 122.4 731.34 116.73 723.87 116.73C714.75 116.73 700.45 124.94 686.78 146.11C672.58 167.99 676.7 191.16 693.65 191.16C702.23 191.16 710.2 184.4 715.75 177.11C716.06 185.69 721.18 191.16 731.05 191.7C741.1 192.24 752.07 182.58 756.62 172.55C758.85 167.62 758.48 162.89 757.71 161.24C756.92 159.79 755.64 159.79 754.78 161.41C748.84 174 739.44 186.23 731.96 186.6C725.79 186.94 725.7 179.48 730.26 168.9ZM727.1 126.05C732.41 126.22 730.08 137.71 720.21 157.96C712.22 174.55 702.74 185.32 695.44 185.12C688.33 184.95 689.77 169.08 699.08 153.4C708.55 137.36 721.45 125.85 727.1 126.05ZM769.24 157.42C782.37 167.79 794.43 163.06 802.96 152.12C810.3 142.83 811.36 131.69 807.94 127.33C804.89 123.32 801.49 120.58 796.83 117.85C787.53 112.55 769.29 122.03 758.26 145.57C747.23 169.08 756.03 191.87 779.18 191.5C793.22 191.33 806.98 182.95 814.22 171.81C817.36 167.08 817.72 161.98 816.93 160.5C816.16 158.88 814.68 158.88 813.82 160.33C806.41 172.35 793.61 186.94 778.46 186.23C768.78 185.69 763.99 174.18 769.24 157.42ZM770.72 153.4C771.06 152.49 771.57 151.38 772.1 150.3C780.04 132.98 794.81 122.03 798.74 125.14C801.38 127.13 797.69 136.62 792.12 144.29C787.06 151.21 779.87 159.05 770.72 153.4ZM817.98 158.68C817.73 157.22 817.68 155.77 817.46 154.32C817.15 151.38 815.68 150.67 813.55 152.49C807.54 157.59 807.42 169.62 812.07 177.82C818.67 189.13 828.97 191.87 839.53 191.5C852.47 190.96 864.63 184.03 871.11 171.44C874.02 165.8 874.02 161.07 873.25 159.42C872.46 157.96 870.62 157.42 869.78 159.42C865.56 169.28 858.28 180.22 846.25 184.77C852.64 180.39 853.66 172.72 853.78 165.63C853.88 153.03 849.91 138.82 850.6 122.03C851.3 120.75 851.8 119.67 852.48 118.56C854.72 114.37 855.56 112.38 853.68 110.55C851.97 108.9 847.8 109.64 843.91 113.29C840.22 116.73 838.51 120.21 837.85 127.33C832.88 136.62 825.09 148.48 817.98 158.68ZM837.89 138.99C839.11 153.58 842.85 182.21 834.56 184.77C828.62 186.6 823.05 179.1 819.95 168.53C826.53 158.68 832.93 148.65 837.89 138.99ZM906.35 104.88C903.82 99.98 898.44 97.79 895.64 100.89C892.82 103.97 892.1 109.44 895.2 114.37C898.11 119.13 903.23 119.67 905.5 117.11C907.78 114.57 908.89 109.64 906.35 104.88ZM879.66 191.33C889.86 191.33 901.08 183.66 906.15 172.35C908.19 167.79 908.59 163.98 907.04 161.07C906.25 159.59 904.99 159.42 904.13 161.07C899.1 173.63 889.49 185.69 881.3 186.03C875.47 186.4 874.85 179.3 878.87 168.71C882.37 159.59 889.6 147.19 893.14 139.19C897.21 130.07 895.48 122.21 892.64 119.3C891.1 117.65 889.87 118.22 888.29 120.38C881.87 129.87 870.6 151.38 866.51 164.72C861.93 179.65 865.79 191.33 879.66 191.33ZM978.73 172.18C981.66 167.25 982.43 163.23 982 161.61C981.57 159.79 979.95 159.79 978.89 161.24C971.93 170.9 962.25 180.93 947.22 188.59C954.24 170.9 964.98 148.85 970.06 137.9C974.31 128.96 972.55 121.12 969.7 117.85C968.39 116.19 966.57 116.39 965.18 118.93C963.47 122.03 961.59 125.31 959.52 128.96C959.5 122.58 955.65 116.93 948.36 116.93C939.04 116.93 924.57 125.14 911.09 146.28C897.07 168.16 901.14 190.96 917.93 190.96C924.68 190.96 930.93 187.14 936.04 181.84C934.36 186.03 932.87 190.42 931.18 194.43C913.36 201.36 898.08 212.47 893.35 228.88C890.28 239.65 893.78 246.03 897.79 251.5C901.26 256.23 904.93 256.8 908.53 255.32C923.08 249.51 935 220.5 944.18 196.06C959.14 190.59 971.99 183.29 978.73 172.18ZM944.67 157.96C935.94 174 927.05 185.49 919.92 185.32C912.62 185.12 914.05 169.08 923.36 153.4C932.84 137.53 945.74 125.85 951.42 126.22C956.7 126.59 955.47 137.9 944.67 157.96ZM928.34 201.9C917.46 229.62 903.73 248.6 901.22 245.12C897.99 240.73 905.12 215.77 928.34 201.9ZM1004.05 134.97C1005.81 128.42 1005.8 122.21 1002.9 117.65C1001.73 115.82 1000.27 115.65 999.05 117.65C988.17 134.63 975.01 159.96 971.76 171.44C969.17 180.56 970.47 186.6 974.24 190.25C975.95 191.87 977.01 191.16 977.69 189.5C984.93 172.35 992.35 154.86 1002.68 143.18C1013.92 130.41 1024.31 125.31 1026.16 126.05C1029.49 127.51 1014.12 146.82 1008.74 164.72C1003.99 180.56 1008.03 191.87 1023.53 191.87C1034.13 191.87 1045.29 182.58 1049.86 172.35C1052.21 167.08 1052.44 162.89 1051.08 160.87C1050.12 159.42 1048.84 159.42 1047.99 161.07C1041.51 173.83 1033.01 185.86 1025.53 186.23C1018.99 186.6 1017.58 178.02 1021.97 167.45C1025.82 157.96 1034.3 144.46 1037.84 136.45C1042.06 126.96 1036.11 118.02 1030.04 117.11C1023.99 116.19 1011.95 126.22 1004.05 134.97ZM1092.97 158.68C1092.71 157.22 1092.66 155.77 1092.44 154.32C1092.14 151.38 1090.66 150.67 1088.53 152.49C1082.53 157.59 1082.41 169.62 1087.05 177.82C1093.66 189.13 1103.96 191.87 1114.51 191.5C1127.46 190.96 1139.61 184.03 1146.09 171.44C1149 165.8 1149.01 161.07 1148.24 159.42C1147.45 157.96 1145.6 157.42 1144.76 159.42C1140.55 169.28 1133.27 180.22 1121.23 184.77C1127.63 180.39 1128.65 172.72 1128.77 165.63C1128.87 153.03 1124.89 138.82 1125.59 122.03C1126.28 120.75 1126.79 119.67 1127.46 118.56C1129.71 114.37 1130.55 112.38 1128.66 110.55C1126.95 108.9 1122.79 109.64 1118.9 113.29C1115.2 116.73 1113.5 120.21 1112.84 127.33C1107.86 136.62 1100.07 148.48 1092.97 158.68ZM1112.88 138.99C1114.1 153.58 1117.84 182.21 1109.55 184.77C1103.6 186.6 1098.04 179.1 1094.93 168.53C1101.51 158.68 1107.91 148.65 1112.88 138.99ZM1214.15 172.01C1216.69 166.54 1216.56 162.69 1215.58 160.7C1214.78 159.25 1212.96 159.25 1212.28 160.87C1207.04 172.55 1197.48 185.69 1190.02 186.03C1183.28 186.4 1182.07 177.82 1186.26 167.25C1190.12 157.76 1198.4 144.46 1202.13 136.45C1206.54 127.13 1200.58 118.02 1194.34 117.3C1189.42 116.73 1180.14 122.78 1172.91 130.07C1180.34 117.85 1189.48 103.06 1193.59 95.76C1200.14 84.28 1200.36 75.16 1197.81 69.89C1196.82 67.7 1194.99 67.5 1193.42 69.69C1179.3 88.13 1143.6 152.29 1137.85 170.53C1134.42 181.47 1136.25 186.6 1139.27 189.88C1140.4 191.16 1141.67 190.79 1142.35 189.13C1146.32 178.02 1152.63 165.26 1158.83 154.49C1168.79 137.16 1188.22 124.77 1190.84 126.22C1193.8 127.88 1178.62 146.82 1173.2 164.52C1168.28 180.39 1172.52 191.5 1187.82 191.5C1198.59 191.5 1209.38 182.38 1214.15 172.01ZM1250.09 104.88C1247.55 99.98 1242.17 97.79 1239.38 100.89C1236.55 103.97 1235.83 109.44 1238.94 114.37C1241.84 119.13 1246.96 119.67 1249.23 117.11C1251.51 114.57 1252.62 109.64 1250.09 104.88ZM1223.4 191.33C1233.6 191.33 1244.81 183.66 1249.88 172.35C1251.92 167.79 1252.33 163.98 1250.77 161.07C1249.98 159.59 1248.72 159.42 1247.87 161.07C1242.83 173.63 1233.23 185.69 1225.03 186.03C1219.21 186.4 1218.59 179.3 1222.6 168.71C1226.1 159.59 1233.33 147.19 1236.87 139.19C1240.94 130.07 1239.21 122.21 1236.37 119.3C1234.83 117.65 1233.6 118.22 1232.02 120.38C1225.6 129.87 1214.33 151.38 1210.24 164.72C1205.66 179.65 1209.52 191.33 1223.4 191.33ZM1274.66 134.97C1276.42 128.42 1276.41 122.21 1273.51 117.65C1272.34 115.82 1270.88 115.65 1269.66 117.65C1258.78 134.63 1245.62 159.96 1242.37 171.44C1239.78 180.56 1241.08 186.6 1244.85 190.25C1246.56 191.87 1247.62 191.16 1248.3 189.5C1255.54 172.35 1262.96 154.86 1273.29 143.18C1284.53 130.41 1294.92 125.31 1296.77 126.05C1300.1 127.51 1284.73 146.82 1279.35 164.72C1274.6 180.56 1278.64 191.87 1294.14 191.87C1304.74 191.87 1315.9 182.58 1320.47 172.35C1322.82 167.08 1323.05 162.89 1321.69 160.87C1320.73 159.42 1319.45 159.42 1318.6 161.07C1312.12 173.83 1303.62 185.86 1296.14 186.23C1289.6 186.6 1288.19 178.02 1292.58 167.45C1296.43 157.96 1304.91 144.46 1308.45 136.45C1312.67 126.96 1306.72 118.02 1300.64 117.11C1294.6 116.19 1282.56 126.22 1274.66 134.97ZM1333.07 157.42C1346.2 167.79 1358.26 163.06 1366.79 152.12C1374.13 142.83 1375.2 131.69 1371.77 127.33C1368.72 123.32 1365.32 120.58 1360.66 117.85C1351.36 112.55 1333.12 122.03 1322.09 145.57C1311.06 169.08 1319.86 191.87 1343.01 191.5C1357.05 191.33 1370.81 182.95 1378.05 171.81C1381.19 167.08 1381.56 161.98 1380.76 160.5C1379.99 158.88 1378.51 158.88 1377.65 160.33C1370.24 172.35 1357.44 186.94 1342.29 186.23C1332.61 185.69 1327.82 174.18 1333.07 157.42ZM1334.56 153.4C1334.89 152.49 1335.4 151.38 1335.93 150.3C1343.87 132.98 1358.65 122.03 1362.57 125.14C1365.21 127.13 1361.52 136.62 1355.95 144.29C1350.89 151.21 1343.7 159.05 1334.56 153.4ZM1381.81 158.68C1381.56 157.22 1381.51 155.77 1381.29 154.32C1380.99 151.38 1379.51 150.67 1377.38 152.49C1371.37 157.59 1371.25 169.62 1375.9 177.82C1382.51 189.13 1392.8 191.87 1403.36 191.5C1416.3 190.96 1428.46 184.03 1434.94 171.44C1437.85 165.8 1437.85 161.07 1437.08 159.42C1436.29 157.96 1434.45 157.42 1433.61 159.42C1429.39 169.28 1422.11 180.22 1410.08 184.77C1416.48 180.39 1417.49 172.72 1417.61 165.63C1417.71 153.03 1413.74 138.82 1414.43 122.03C1415.13 120.75 1415.63 119.67 1416.31 118.56C1418.55 114.37 1419.4 112.38 1417.51 110.55C1415.8 108.9 1411.64 109.64 1407.75 113.29C1404.05 116.73 1402.35 120.21 1401.68 127.33C1396.71 136.62 1388.92 148.48 1381.81 158.68ZM1401.72 138.99C1402.94 153.58 1406.68 182.21 1398.39 184.77C1392.45 186.6 1386.88 179.1 1383.78 168.53C1390.36 158.68 1396.76 148.65 1401.72 138.99Z" />
      <path d="M458.73 322.62C469.48 331.46 479.96 327.43 487.7 318.1C494.35 310.19 495.73 300.69 492.99 296.98C490.57 293.55 487.79 291.22 483.94 288.89C476.23 284.37 460.28 292.46 449.88 312.52C439.47 332.55 446.01 351.98 465.75 351.66C477.73 351.52 489.81 344.38 496.46 334.88C499.33 330.85 499.86 326.51 499.25 325.24C498.66 323.86 497.4 323.86 496.6 325.1C489.77 335.35 478.25 347.78 465.36 347.17C457.13 346.71 453.54 336.9 458.73 322.62ZM460.17 319.2C460.5 318.42 460.97 317.47 461.47 316.55C468.98 301.79 482.04 292.46 485.25 295.11C487.41 296.81 483.87 304.89 478.79 311.43C474.19 317.33 467.72 324.01 460.17 319.2ZM517.73 347.63C512.6 357.73 508.4 367.69 506.45 374.2C503.67 383.06 505.5 386.02 507.62 388.5C508.7 389.74 509.62 389.59 510.43 387.89C523.15 358.51 542.14 326.51 551.86 309.56C557.12 300.38 557.4 293.55 555.59 289.67C554.37 287.94 553.43 287.48 551.71 289.21C550.28 290.59 547.57 294.48 544.88 299.14C545.43 293.38 542.4 287.94 535.55 287.94C527.78 287.94 515.1 295.11 502.54 312.98C489.36 331.95 492.03 351.52 506.48 351.52C510.36 351.52 514.27 349.96 517.73 347.63ZM530.99 323.08C522.85 336.9 514.64 346.71 508.25 346.71C502.2 346.71 504.26 332.55 512.86 319.2C521.62 305.53 533.11 295.57 538.08 295.88C542.59 296.2 541.04 305.99 530.99 323.08ZM582.37 336.61C581 345.62 584.96 351.98 595.06 351.98C604.22 351.98 613.98 344.06 618.62 335.35C620.85 331 620.77 326.8 620.16 325.56C619.57 324.18 618.16 324.32 617.36 325.73C611.13 336.61 603.06 346.86 596.52 347.17C590.93 347.49 590.4 340.95 594.58 332.09C598.27 324.18 606.22 312.52 609.75 305.53C613.58 297.75 612.44 290.91 610.15 288.11C608.94 286.56 607.84 286.88 606.25 289.04C601.18 295.71 596.52 306.45 586.47 322.31C577.89 335.83 569.18 346.71 563.12 346.22C559.55 345.93 559.18 340.32 562.54 332.72C565.94 325.24 569.14 319.03 575.01 309.87C580.75 301.01 581.63 294.02 578.28 288.89C577.07 287.48 575.51 287.34 574.25 289.04C563.93 303.19 555.77 318.42 552.19 328.67C548.63 338.94 548.75 350.43 559.79 351.2C568.47 351.83 576.83 343.89 582.37 336.61ZM665.64 298.68C666.03 292.61 662.99 287.48 656.32 287.48C648.55 287.48 636.18 294.48 623.3 312.81C610.12 331.63 612.79 351.37 627.24 351.37C634.69 351.37 641.77 345.62 646.85 339.23C646.74 346.54 651.01 351.52 659.4 351.98C667.94 352.44 677.86 343.89 682.02 335.35C684.1 331 684.16 327.11 683.57 325.73C682.96 324.32 681.87 324.47 681.07 325.87C675.47 336.61 666.76 347.17 660.39 347.49C655.1 347.78 655.37 341.1 659.38 332.41C663.22 324.18 671.17 312.52 674.7 305.53C678.55 297.75 677.41 291.05 675.12 288.26C674.05 286.88 672.81 287.17 671.37 289.21C669.63 291.68 667.71 294.94 665.64 298.68ZM651.76 322.77C643.61 336.44 635.4 346.39 629.01 346.22C622.97 346.08 625.19 332.41 633.62 319.03C642.38 305.21 653.87 295.11 658.84 295.57C663.35 296.03 661.8 305.67 651.76 322.77ZM693.47 318.1C707.44 309.1 725.13 290.45 730.23 271.33C732.21 264.03 731.35 258.27 726.92 254.24C724.76 252.2 722.6 252.51 720.23 255.02C704.12 271.48 685.97 299.6 679.81 326.65C675.99 343.43 681.63 350.89 692.36 351.2C704.79 351.52 716.33 338.62 718.56 333.96C720.34 330.22 721 326.8 720.26 324.32C719.68 322.14 717.95 322.31 716.86 324.32C710.61 336.29 699.56 347.49 692.11 346.86C685.13 346.22 687.02 333.33 693.47 318.1ZM696.36 311.43C697.49 308.93 698.77 306.45 700.21 303.97C711.24 284.06 722.99 266.82 724.98 268.06C727.01 269.29 717.92 294.16 696.36 311.43ZM729.21 318.1C743.19 309.1 760.88 290.45 765.97 271.33C767.95 264.03 767.09 258.27 762.66 254.24C760.51 252.2 758.34 252.51 755.97 255.02C739.87 271.48 721.72 299.6 715.56 326.65C711.74 343.43 717.38 350.89 728.11 351.2C740.54 351.52 752.07 338.62 754.3 333.96C756.08 330.22 756.74 326.8 756 324.32C755.43 322.14 753.7 322.31 752.6 324.32C746.35 336.29 735.3 347.49 727.86 346.86C720.87 346.22 722.77 333.33 729.21 318.1ZM732.1 311.43C733.23 308.93 734.51 306.45 735.96 303.97C746.99 284.06 758.73 266.82 760.73 268.06C762.75 269.29 753.66 294.16 732.1 311.43ZM809.47 334.11C812.18 330.08 812.69 326.51 812.42 325.1C812.13 323.54 810.72 323.69 809.93 324.78C803.58 333.33 794.29 342.19 782.05 348.73C788.81 333.65 798.59 315 803.39 305.99C807.54 298.05 806.4 291.37 804.25 288.58C802.89 287.34 801.79 287.65 800.35 289.67C794.79 297.58 787.91 311.57 781.06 323.08C772.91 336.61 764.99 346.54 758.95 346.08C755.39 345.76 755.15 340.32 758.38 332.72C761.42 325.41 764.94 319.03 770.69 310.02C776.56 300.86 777.6 294.33 773.94 289.35C772.87 287.8 771.31 287.65 770.05 289.35C759.74 303.34 751.91 318.74 748.33 328.67C744.61 338.94 744.73 350.28 755.91 351.2C762.12 351.66 768.08 347.63 772.99 342.65C771.21 346.39 769.6 350.28 767.99 353.85C752.53 359.92 739.18 369.24 734.31 383.23C731.06 392.39 734.09 397.83 737.13 402.49C740 406.84 742.96 406.84 745.94 405.77C758.91 400.79 770.31 375.75 779.34 354.94C792.31 349.65 803.28 343.75 809.47 334.11ZM765.27 360.38C755.29 383.23 742.28 400.16 740.31 397.22C737.58 393.33 744.89 372.04 765.27 360.38ZM892.86 298.68C893.24 292.61 890.21 287.48 883.53 287.48C875.76 287.48 863.39 294.48 850.51 312.81C837.34 331.63 840 351.37 854.45 351.37C861.91 351.37 868.99 345.62 874.06 339.23C873.95 346.54 878.22 351.52 886.62 351.98C895.16 352.44 905.07 343.89 909.23 335.35C911.31 331 911.37 327.11 910.79 325.73C910.18 324.32 909.08 324.47 908.28 325.87C902.68 336.61 893.98 347.17 887.61 347.49C882.31 347.78 882.58 341.1 886.6 332.41C890.44 324.18 898.38 312.52 901.91 305.53C905.77 297.75 904.63 291.05 902.34 288.26C901.27 286.88 900.02 287.17 898.58 289.21C896.85 291.68 894.93 294.94 892.86 298.68ZM878.97 322.77C870.82 336.44 862.61 346.39 856.23 346.22C850.18 346.08 852.41 332.41 860.84 319.03C869.59 305.21 881.08 295.11 886.06 295.57C890.57 296.03 889.01 305.67 878.97 322.77ZM944.28 289.21C936.58 284.54 920.74 292.92 910.52 312.52C900.12 332.55 906.5 351.83 926.25 351.52C938.05 351.37 950.46 343.75 956.5 334.57C959.2 330.39 959.87 326.51 959.43 325.24C958.84 323.69 957.43 323.86 956.64 325.1C950.13 334.88 938.75 347.32 925.68 347.17C916.53 347 913.45 334.11 922.26 316.55C929.46 302.42 941.27 292.46 943.88 294.65C946.04 296.35 941.28 303.02 939.47 308.63C937.21 315.63 939.3 320.29 943.01 322.14C945.01 323.23 945.65 322.77 946.28 320.9C949.52 312.52 955.86 304.26 952.7 297.75C950.88 294.16 948.44 291.68 944.28 289.21ZM979.7 300.09C983.74 290.28 985.11 281.27 980.3 281.44C974.54 281.58 960.74 299.92 969.52 305.67C963.64 313.9 953 328.52 949.33 335.35C945.01 343.29 944.9 350.43 949.35 355.09C950.74 356.5 951.67 355.72 952.01 354.31C955.16 340.18 970.42 318.1 976.49 307.23C981.15 307.23 987.85 305.82 994.76 301.32C988.44 308.46 979.27 319.51 975.69 329.76C971.63 341.42 975.97 351.66 987.15 352.15C995.38 352.44 1004.51 345.93 1008.22 336.9C1009.98 332.72 1009.89 328.98 1009.14 327.28C1008.53 326.02 1007.6 326.19 1006.95 327.43C1001.81 338.62 994.21 348.26 988.16 347.95C983.65 347.78 981.87 341.73 984.49 333.65C987.09 325.56 994.86 315.77 1001.98 307.86C1006.54 302.71 1002.93 295.88 1000.02 292.61C998.94 291.37 997.7 291.68 995.81 292.92C990 296.98 984.69 299.45 979.7 300.09ZM1058.27 315.77C1058.89 315 1058.9 314.22 1057.83 314.22C1056.57 314.22 1055.64 314.53 1054.72 314.53C1054.88 313.3 1054.9 312.2 1055.06 310.96C1056.18 299.77 1051.53 298.68 1048.03 293.87C1044.99 289.67 1042.36 288.26 1037.52 288.58C1028.19 289.21 1018.58 298.22 1012.52 308.78C1005.34 321.21 1002.81 334.74 1009.5 343.75C1015.59 351.83 1023.36 352.44 1028.99 350.6C1040.54 346.71 1050.58 331 1054.04 317.79C1055.59 317.64 1057.16 317.01 1058.27 315.77ZM1044.95 311.57C1042.51 309.24 1040.88 304.75 1041.72 300.55C1042.56 296.03 1045.68 295.11 1046.38 300.09C1046.8 302.88 1046.28 306.76 1044.95 311.57ZM1043.82 315.77C1042.5 319.51 1040.59 323.86 1038.19 328.21C1030.35 342.51 1020.8 347.95 1016.48 344.38C1012.5 340.95 1015.05 326.65 1021.76 314.85C1025.1 308.93 1029.69 303.8 1033.95 300.23C1034.01 305.99 1037.67 311.43 1040.88 313.9C1041.79 314.68 1042.73 315.31 1043.82 315.77ZM1062.66 323.69C1062.51 322.45 1062.53 321.21 1062.4 319.97C1062.27 317.47 1061.04 316.87 1059.14 318.42C1053.81 322.77 1053.2 333.01 1056.81 340.01C1061.95 349.65 1070.61 351.98 1079.63 351.66C1090.68 351.2 1101.33 345.3 1107.4 334.57C1110.12 329.76 1110.32 325.73 1109.74 324.32C1109.12 323.08 1107.58 322.62 1106.77 324.32C1102.76 332.72 1096.09 342.05 1085.64 345.93C1091.28 342.19 1092.47 335.66 1092.88 329.61C1093.5 318.88 1090.72 306.76 1092.03 292.46C1092.67 291.37 1093.15 290.45 1093.77 289.5C1095.86 285.93 1096.67 284.23 1095.13 282.67C1093.75 281.27 1090.17 281.9 1086.7 285.01C1083.4 287.94 1081.8 290.91 1080.93 296.98C1076.3 304.89 1069.15 315 1062.66 323.69ZM1080.47 306.91C1080.89 319.34 1082.85 343.75 1075.68 345.93C1070.53 347.49 1066.11 341.1 1063.92 332.09C1069.94 323.69 1075.83 315.14 1080.47 306.91ZM1109.59 323.69C1109.44 322.45 1109.46 321.21 1109.33 319.97C1109.2 317.47 1107.97 316.87 1106.08 318.42C1100.75 322.77 1100.13 333.01 1103.74 340.01C1108.89 349.65 1117.55 351.98 1126.56 351.66C1137.62 351.2 1148.27 345.3 1154.33 334.57C1157.05 329.76 1157.26 325.73 1156.67 324.32C1156.06 323.08 1154.51 322.62 1153.71 324.32C1149.7 332.72 1143.02 342.05 1132.57 345.93C1138.21 342.19 1139.41 335.66 1139.81 329.61C1140.43 318.88 1137.65 306.76 1138.96 292.46C1139.61 291.37 1140.08 290.45 1140.7 289.5C1142.8 285.93 1143.6 284.23 1142.07 282.67C1140.68 281.27 1137.1 281.9 1133.63 285.01C1130.33 287.94 1128.74 290.91 1127.87 296.98C1123.23 304.89 1116.09 315 1109.59 323.69ZM1127.4 306.91C1127.82 319.34 1129.79 343.75 1122.62 345.93C1117.47 347.49 1113.05 341.1 1110.85 332.09C1116.88 323.69 1122.76 315.14 1127.4 306.91ZM1198.97 322.62C1209.71 331.46 1220.19 327.43 1227.93 318.1C1234.58 310.19 1235.97 300.69 1233.23 296.98C1230.8 293.55 1228.02 291.22 1224.17 288.89C1216.47 284.37 1200.51 292.46 1190.11 312.52C1179.71 332.55 1186.24 351.98 1205.99 351.66C1217.96 351.52 1230.04 344.38 1236.69 334.88C1239.57 330.85 1240.09 326.51 1239.48 325.24C1238.9 323.86 1237.63 323.86 1236.84 325.1C1230.01 335.35 1218.48 347.78 1205.59 347.17C1197.37 346.71 1193.78 336.9 1198.97 322.62ZM1200.4 319.2C1200.73 318.42 1201.21 317.47 1201.71 316.55C1209.21 301.79 1222.27 292.46 1225.49 295.11C1227.65 296.81 1224.1 304.89 1219.02 311.43C1214.42 317.33 1207.96 324.01 1200.4 319.2ZM1244.63 344.67C1247.07 327.74 1250.31 319.03 1253.28 307.08C1255.61 297.58 1254.92 291.83 1249.83 287.48C1248.61 286.39 1247.37 287.02 1246.71 288.72C1241.2 304.89 1236.66 327.11 1235.87 337.99C1235.28 346.22 1237.42 349.33 1243.42 352.3C1244.97 353.07 1245.76 351.98 1246.55 350.74C1261.84 327.11 1276.2 312.2 1284.12 302.42C1289.19 296.2 1291.12 292.15 1290.71 288.89C1290.42 286.88 1289.48 286.56 1287.75 288.26C1277.03 299.14 1255.95 326.51 1244.63 344.67ZM1295.32 322.62C1306.07 331.46 1316.55 327.43 1324.29 318.1C1330.94 310.19 1332.32 300.69 1329.58 296.98C1327.16 293.55 1324.38 291.22 1320.53 288.89C1312.82 284.37 1296.87 292.46 1286.47 312.52C1276.06 332.55 1282.6 351.98 1302.34 351.66C1314.32 351.52 1326.4 344.38 1333.05 334.88C1335.92 330.85 1336.45 326.51 1335.84 325.24C1335.25 323.86 1333.99 323.86 1333.19 325.1C1326.36 335.35 1314.84 347.78 1301.95 347.17C1293.73 346.71 1290.13 336.9 1295.32 322.62ZM1296.76 319.2C1297.09 318.42 1297.56 317.47 1298.06 316.55C1305.57 301.79 1318.63 292.46 1321.84 295.11C1324 296.81 1320.46 304.89 1315.38 311.43C1310.78 317.33 1304.31 324.01 1296.76 319.2ZM1356.74 300.09C1360.77 290.28 1362.14 281.27 1357.33 281.44C1351.57 281.58 1337.77 299.92 1346.55 305.67C1340.67 313.9 1330.03 328.52 1326.36 335.35C1322.04 343.29 1321.94 350.43 1326.38 355.09C1327.77 356.5 1328.7 355.72 1329.04 354.31C1332.19 340.18 1347.46 318.1 1353.52 307.23C1358.18 307.23 1364.88 305.82 1371.8 301.32C1365.47 308.46 1356.3 319.51 1352.72 329.76C1348.66 341.42 1353 351.66 1364.19 352.15C1372.41 352.44 1381.55 345.93 1385.25 336.9C1387.01 332.72 1386.92 328.98 1386.17 327.28C1385.56 326.02 1384.63 326.19 1383.98 327.43C1378.84 338.62 1371.24 348.26 1365.2 347.95C1360.68 347.78 1358.9 341.73 1361.53 333.65C1364.12 325.56 1371.9 315.77 1379.01 307.86C1383.58 302.71 1379.96 295.88 1377.05 292.61C1375.98 291.37 1374.73 291.68 1372.85 292.92C1367.03 296.98 1361.72 299.45 1356.74 300.09ZM1441.85 334.11C1444.56 330.08 1445.07 326.51 1444.8 325.1C1444.51 323.54 1443.1 323.69 1442.3 324.78C1435.96 333.33 1426.67 342.19 1414.43 348.73C1421.19 333.65 1430.96 315 1435.76 305.99C1439.91 298.05 1438.77 291.37 1436.63 288.58C1435.26 287.34 1434.17 287.65 1432.73 289.67C1427.17 297.58 1420.28 311.57 1413.43 323.08C1405.29 336.61 1397.37 346.54 1391.33 346.08C1387.76 345.76 1387.53 340.32 1390.75 332.72C1393.8 325.41 1397.32 319.03 1403.06 310.02C1408.93 300.86 1409.98 294.33 1406.31 289.35C1405.24 287.8 1403.69 287.65 1402.43 289.35C1392.12 303.34 1384.28 318.74 1380.71 328.67C1376.99 338.94 1377.11 350.28 1388.29 351.2C1394.5 351.66 1400.46 347.63 1405.37 342.65C1403.59 346.39 1401.98 350.28 1400.37 353.85C1384.91 359.92 1371.56 369.24 1366.68 383.23C1363.44 392.39 1366.46 397.83 1369.5 402.49C1372.38 406.84 1375.34 406.84 1378.32 405.77C1391.29 400.79 1402.69 375.75 1411.72 354.94C1424.69 349.65 1435.66 343.75 1441.85 334.11ZM1397.65 360.38C1387.66 383.23 1374.66 400.16 1372.69 397.22C1369.96 393.33 1377.27 372.04 1397.65 360.38Z" />
      <path d="M870.36 489.64C879.29 469.86 896.57 439.09 905.19 423.06C912.75 409.07 913.14 401.06 910.43 394.91C909.45 392.46 907.75 392.29 905.94 394.91C899.43 404.41 885.74 429.76 876.07 448.99C876.11 442.09 872.27 436.29 864.63 436.29C855.31 436.29 840.55 444.68 826.24 466.33C811.39 488.71 815.25 512.4 832.58 512.4C841.35 512.4 849.61 505.5 855.4 498.04C855.58 506.81 860.73 512.4 870.83 512.96C881.09 513.51 892.47 503.63 897.27 493.37C899.62 488.33 899.32 483.5 898.56 481.81C897.77 480.32 896.46 480.32 895.56 481.98C889.29 494.86 879.49 507.36 871.83 507.74C865.51 508.09 865.54 500.46 870.36 489.64ZM867.79 445.82C873.22 445.99 870.65 457.74 860.26 478.46C851.83 495.41 841.96 506.43 834.5 506.23C827.24 506.05 828.96 489.82 838.72 473.79C848.65 457.39 862.02 445.61 867.79 445.82ZM935.44 424.17C932.92 419.16 927.46 416.91 924.55 420.09C921.61 423.23 920.79 428.83 923.89 433.87C926.79 438.74 932.02 439.29 934.38 436.67C936.75 434.07 937.96 429.03 935.44 424.17ZM906.82 512.58C917.25 512.58 928.84 504.74 934.2 493.17C936.35 488.51 936.83 484.6 935.28 481.63C934.49 480.12 933.21 479.94 932.31 481.63C926.97 494.48 916.96 506.81 908.57 507.16C902.61 507.54 902.08 500.28 906.36 489.44C910.07 480.12 917.66 467.44 921.4 459.25C925.7 449.93 924.05 441.88 921.2 438.91C919.65 437.22 918.38 437.8 916.73 440.02C910.02 449.72 898.16 471.72 893.77 485.36C888.86 500.63 892.63 512.58 906.82 512.58ZM938.04 479.18C937.81 477.7 937.78 476.21 937.57 474.73C937.31 471.72 935.81 471 933.6 472.86C927.38 478.08 927.08 490.37 931.7 498.77C938.29 510.33 948.77 513.13 959.58 512.75C972.82 512.2 985.36 505.12 992.18 492.24C995.24 486.47 995.32 481.63 994.56 479.94C993.77 478.46 991.9 477.9 991 479.94C986.54 490.02 978.93 501.21 966.55 505.88C973.16 501.39 974.32 493.55 974.55 486.29C974.85 473.41 971 458.87 971.97 441.71C972.7 440.4 973.23 439.29 973.94 438.15C976.3 433.87 977.19 431.83 975.29 429.97C973.56 428.28 969.3 429.03 965.26 432.76C961.43 436.29 959.63 439.84 958.85 447.13C953.62 456.63 945.47 468.75 938.04 479.18ZM958.71 459.05C959.73 473.97 963.12 503.25 954.6 505.88C948.49 507.74 942.92 500.08 939.9 489.27C946.78 479.18 953.48 468.93 958.71 459.05ZM1032.32 437.8C1022.88 432.21 1004.23 442.26 992.78 465.78C981.14 489.82 989.62 512.96 1013.3 512.58C1027.46 512.4 1042.02 503.25 1048.88 492.24C1051.96 487.23 1052.59 482.56 1052.01 481.05C1051.24 479.18 1049.56 479.39 1048.66 480.87C1041.26 492.62 1028.12 507.54 1012.44 507.36C1001.45 507.16 997.21 491.68 1007.04 470.62C1015.1 453.66 1028.84 441.71 1032.07 444.33C1034.74 446.37 1029.3 454.39 1027.37 461.12C1024.94 469.51 1027.65 475.1 1032.18 477.32C1034.62 478.63 1035.37 478.08 1036.05 475.83C1039.58 465.78 1046.84 455.87 1042.78 448.06C1040.45 443.75 1037.42 440.78 1032.32 437.8ZM1087.25 424.17C1084.73 419.16 1079.27 416.91 1076.36 420.09C1073.42 423.23 1072.6 428.83 1075.7 433.87C1078.6 438.74 1083.82 439.29 1086.19 436.67C1088.56 434.07 1089.77 429.03 1087.25 424.17ZM1058.63 512.58C1069.06 512.58 1080.64 504.74 1086.01 493.17C1088.16 488.51 1088.63 484.6 1087.09 481.63C1086.3 480.12 1085.02 479.94 1084.12 481.63C1078.78 494.48 1068.77 506.81 1060.38 507.16C1054.42 507.54 1053.89 500.28 1058.16 489.44C1061.88 480.12 1069.47 467.44 1073.21 459.25C1077.51 449.93 1075.86 441.88 1073.01 438.91C1071.46 437.22 1070.19 437.8 1068.54 440.02C1061.83 449.72 1049.97 471.72 1045.58 485.36C1040.67 500.63 1044.44 512.58 1058.63 512.58ZM1122.15 509.02C1129.15 504.74 1135.87 495.79 1141.22 483.5C1147.79 468.2 1151.57 451.59 1142.43 442.09C1134.25 433.7 1123.34 438.91 1115.29 445.99C1115.41 442.82 1114.97 440.02 1113.99 437.6C1113.01 435.36 1111.35 435.01 1109.53 437.43C1098.07 453.07 1067.93 512.2 1062.69 530.3C1059.39 541.66 1060.43 546.91 1063.31 550.81C1064.45 552.5 1065.75 552.12 1066.45 550.43C1075.01 529.74 1084.13 510.71 1092.58 494.69C1093.22 499.35 1095.18 503.63 1099.15 507.16C1105.8 513.13 1113.67 514.82 1125.6 514.06C1139.02 513.13 1151.57 506.98 1158.39 494.1C1161.45 488.33 1160.98 483.5 1160.57 481.81C1160.15 479.94 1158.1 479.18 1157.04 481.81C1151.32 494.48 1140.4 507.92 1122.15 509.02ZM1102.64 476.04C1104.8 472.1 1106.77 468.75 1108.78 465.4C1117.26 451.03 1128.61 441.71 1133.15 443.95C1137.85 446.2 1136.12 461.67 1129.14 476.59C1120.72 494.48 1108.87 508.09 1102.8 503.25C1097.5 498.97 1098.21 487.78 1102.64 476.04ZM1173.25 472.48C1189.64 461.67 1210.09 439.29 1215.4 416.36C1217.47 407.59 1216.19 400.68 1210.7 395.84C1208.03 393.4 1205.45 393.77 1202.71 396.78C1184.08 416.53 1163.48 450.28 1157.22 482.74C1153.34 502.87 1160.43 511.82 1173.31 512.2C1188.24 512.58 1201.54 497.1 1204.02 491.51C1206 487.02 1206.65 482.91 1205.66 479.94C1204.87 477.32 1202.81 477.52 1201.58 479.94C1194.58 494.31 1181.79 507.74 1172.83 506.98C1164.42 506.23 1166.15 490.75 1173.25 472.48ZM1176.44 464.47C1177.69 461.47 1179.12 458.49 1180.75 455.52C1193.15 431.63 1206.52 410.94 1208.97 412.42C1211.44 413.91 1201.58 443.75 1176.44 464.47ZM1240.18 424.17C1237.66 419.16 1232.19 416.91 1229.29 420.09C1226.35 423.23 1225.53 428.83 1228.63 433.87C1231.52 438.74 1236.75 439.29 1239.12 436.67C1241.48 434.07 1242.69 429.03 1240.18 424.17ZM1211.55 512.58C1221.99 512.58 1233.57 504.74 1238.94 493.17C1241.09 488.51 1241.56 484.6 1240.02 481.63C1239.23 480.12 1237.94 479.94 1237.04 481.63C1231.71 494.48 1221.69 506.81 1213.31 507.16C1207.34 507.54 1206.82 500.28 1211.09 489.44C1214.81 480.12 1222.39 467.44 1226.13 459.25C1230.44 449.93 1228.79 441.88 1225.93 438.91C1224.38 437.22 1223.11 437.8 1221.47 440.02C1214.75 449.72 1202.9 471.72 1198.51 485.36C1193.6 500.63 1197.36 512.58 1211.55 512.58ZM1264.85 454.94C1266.75 448.24 1266.83 441.88 1263.94 437.22C1262.76 435.36 1261.27 435.18 1260 437.22C1248.61 454.59 1234.76 480.5 1231.26 492.24C1228.48 501.56 1229.71 507.74 1233.51 511.47C1235.24 513.13 1236.33 512.4 1237.05 510.71C1244.72 493.17 1252.58 475.28 1263.32 463.33C1275.01 450.28 1285.72 445.06 1287.6 445.82C1290.98 447.3 1274.97 467.06 1269.18 485.36C1264.09 501.56 1268.05 513.13 1283.9 513.13C1294.74 513.13 1306.29 503.63 1311.13 493.17C1313.61 487.78 1313.91 483.5 1312.55 481.43C1311.59 479.94 1310.28 479.94 1309.38 481.63C1302.56 494.69 1293.69 506.98 1286.03 507.36C1279.33 507.74 1278.02 498.97 1282.67 488.16C1286.76 478.46 1295.64 464.64 1299.38 456.45C1303.85 446.75 1297.89 437.6 1291.7 436.67C1285.53 435.74 1273.06 445.99 1264.85 454.94ZM1324.24 477.9C1337.51 488.51 1349.91 483.67 1358.81 472.48C1366.46 462.98 1367.72 451.59 1364.28 447.13C1361.22 443.02 1357.79 440.22 1353.07 437.43C1343.64 432.01 1324.83 441.71 1313.19 465.78C1301.55 489.82 1310.2 513.13 1333.89 512.75C1348.25 512.58 1362.44 504.01 1370.03 492.62C1373.31 487.78 1373.76 482.56 1372.97 481.05C1372.21 479.39 1370.69 479.39 1369.79 480.87C1362.02 493.17 1348.71 508.09 1333.22 507.36C1323.34 506.81 1318.61 495.04 1324.24 477.9ZM1325.82 473.79C1326.18 472.86 1326.71 471.72 1327.27 470.62C1335.66 452.9 1350.94 441.71 1354.91 444.89C1357.57 446.93 1353.66 456.63 1347.84 464.47C1342.56 471.55 1335.09 479.56 1325.82 473.79ZM1378.43 501.77C1376.47 506.23 1377.69 511.65 1381.45 512.96C1385.2 514.27 1389.98 511.27 1391.95 506.43C1393.89 501.39 1392.69 496.55 1388.93 495.24C1385.17 493.93 1380.57 496.73 1378.43 501.77Z" />
  </g>
  <g fill="#ff7048" opacity=".12" transform="translate(5 7)" mask="url(#dry-brush-breaks)">
      <path d="M428.84 153.58C433.55 153.03 438.1 152.86 441.59 153.21C443.97 153.58 444.29 152.29 443.31 150.3C440.76 144.83 435.49 140.81 426.38 141.01C415.27 141.18 401.58 145.74 387.34 145.91C385.18 145.91 384.65 147.02 385.62 148.85C388.56 154.69 394.36 158.5 403.45 157.59C407.8 157.22 413.6 156.14 419.4 155.03C409.06 177.11 388.2 190.79 377.84 181.47C370.32 174.75 368.8 147.02 384.85 121.12C401.25 94.68 430.42 79.01 436.47 85.02C440.63 89.04 434.23 99.24 432.19 108.36C430.11 117.48 433.23 122.78 437.52 125.68C439.58 127.51 440.82 126.22 441.31 124.77C443.14 119.47 445.8 112.18 447.82 107.28C450.18 101.43 450.35 96.51 448.54 91.41C446.93 86.65 443.83 82.09 438.6 78.44C432.23 73.88 424.03 74.08 413.95 77.36C393.58 84.11 357.96 118.76 359.7 157.96C360.39 172.92 366.15 181.13 372.9 186.03C383.2 193.69 394.63 192.24 403.46 189.68C412.49 187.14 434.17 170.73 428.84 153.58ZM507.1 149.39C507.78 148.48 507.75 147.56 506.5 147.56C505.02 147.56 503.95 147.93 502.86 147.93C502.98 146.48 502.94 145.2 503.06 143.75C503.71 130.61 498.2 129.33 493.81 123.69C489.99 118.76 486.83 117.11 481.17 117.48C470.25 118.22 459.51 128.79 453.02 141.18C445.33 155.77 443.15 171.64 451.52 182.21C459.15 191.7 468.29 192.41 474.8 190.25C488.12 185.69 498.98 167.25 502.26 151.75C504.07 151.58 505.87 150.84 507.1 149.39ZM491.23 144.46C488.23 141.72 486.05 136.45 486.79 131.52C487.52 126.22 491.13 125.14 492.24 130.98C492.9 134.26 492.52 138.82 491.23 144.46ZM490.15 149.39C488.82 153.78 486.84 158.88 484.28 163.98C475.92 180.76 465.03 187.14 459.76 182.95C454.88 178.93 457.03 162.15 464.21 148.3C467.79 141.35 472.88 135.34 477.66 131.15C478.07 137.9 482.68 144.29 486.6 147.19C487.71 148.11 488.85 148.85 490.15 149.39ZM567.64 149.39C568.32 148.48 568.29 147.56 567.04 147.56C565.56 147.56 564.49 147.93 563.4 147.93C563.52 146.48 563.48 145.2 563.6 143.75C564.25 130.61 558.74 129.33 554.35 123.69C550.53 118.76 547.37 117.11 541.71 117.48C530.79 118.22 520.05 128.79 513.56 141.18C505.87 155.77 503.69 171.64 512.06 182.21C519.69 191.7 528.83 192.41 535.34 190.25C548.66 185.69 559.52 167.25 562.8 151.75C564.62 151.58 566.41 150.84 567.64 149.39ZM551.77 144.46C548.77 141.72 546.59 136.45 547.33 131.52C548.06 126.22 551.67 125.14 552.78 130.98C553.44 134.26 553.06 138.82 551.77 144.46ZM550.69 149.39C549.36 153.78 547.38 158.88 544.82 163.98C536.46 180.76 525.57 187.14 520.3 182.95C515.43 178.93 517.57 162.15 524.75 148.3C528.33 141.35 533.42 135.34 538.2 131.15C538.61 137.9 543.22 144.29 547.14 147.19C548.25 148.11 549.39 148.85 550.69 149.39ZM617.01 168.9C625.46 149.56 641.9 119.47 650.1 103.8C657.28 90.12 657.55 82.29 654.8 76.28C653.81 73.88 652.15 73.71 650.41 76.28C644.19 85.56 631.18 110.35 622.01 129.16C621.94 122.4 618.1 116.73 610.63 116.73C601.51 116.73 587.21 124.94 573.54 146.11C559.34 167.99 563.46 191.16 580.41 191.16C588.99 191.16 596.96 184.4 602.51 177.11C602.81 185.69 607.94 191.16 617.81 191.7C627.86 192.24 638.83 182.58 643.38 172.55C645.61 167.62 645.24 162.89 644.47 161.24C643.68 159.79 642.4 159.79 641.54 161.41C635.6 174 626.2 186.23 618.72 186.6C612.55 186.94 612.46 179.48 617.01 168.9ZM613.86 126.05C619.17 126.22 616.83 137.71 606.97 157.96C598.98 174.55 589.5 185.32 582.19 185.12C575.09 184.95 576.53 169.08 585.84 153.4C595.31 137.36 608.21 125.85 613.86 126.05ZM730.26 168.9C738.7 149.56 755.14 119.47 763.34 103.8C770.52 90.12 770.79 82.29 768.04 76.28C767.05 73.88 765.39 73.71 763.65 76.28C757.43 85.56 744.42 110.35 735.25 129.16C735.18 122.4 731.34 116.73 723.87 116.73C714.75 116.73 700.45 124.94 686.78 146.11C672.58 167.99 676.7 191.16 693.65 191.16C702.23 191.16 710.2 184.4 715.75 177.11C716.06 185.69 721.18 191.16 731.05 191.7C741.1 192.24 752.07 182.58 756.62 172.55C758.85 167.62 758.48 162.89 757.71 161.24C756.92 159.79 755.64 159.79 754.78 161.41C748.84 174 739.44 186.23 731.96 186.6C725.79 186.94 725.7 179.48 730.26 168.9ZM727.1 126.05C732.41 126.22 730.08 137.71 720.21 157.96C712.22 174.55 702.74 185.32 695.44 185.12C688.33 184.95 689.77 169.08 699.08 153.4C708.55 137.36 721.45 125.85 727.1 126.05ZM769.24 157.42C782.37 167.79 794.43 163.06 802.96 152.12C810.3 142.83 811.36 131.69 807.94 127.33C804.89 123.32 801.49 120.58 796.83 117.85C787.53 112.55 769.29 122.03 758.26 145.57C747.23 169.08 756.03 191.87 779.18 191.5C793.22 191.33 806.98 182.95 814.22 171.81C817.36 167.08 817.72 161.98 816.93 160.5C816.16 158.88 814.68 158.88 813.82 160.33C806.41 172.35 793.61 186.94 778.46 186.23C768.78 185.69 763.99 174.18 769.24 157.42ZM770.72 153.4C771.06 152.49 771.57 151.38 772.1 150.3C780.04 132.98 794.81 122.03 798.74 125.14C801.38 127.13 797.69 136.62 792.12 144.29C787.06 151.21 779.87 159.05 770.72 153.4ZM817.98 158.68C817.73 157.22 817.68 155.77 817.46 154.32C817.15 151.38 815.68 150.67 813.55 152.49C807.54 157.59 807.42 169.62 812.07 177.82C818.67 189.13 828.97 191.87 839.53 191.5C852.47 190.96 864.63 184.03 871.11 171.44C874.02 165.8 874.02 161.07 873.25 159.42C872.46 157.96 870.62 157.42 869.78 159.42C865.56 169.28 858.28 180.22 846.25 184.77C852.64 180.39 853.66 172.72 853.78 165.63C853.88 153.03 849.91 138.82 850.6 122.03C851.3 120.75 851.8 119.67 852.48 118.56C854.72 114.37 855.56 112.38 853.68 110.55C851.97 108.9 847.8 109.64 843.91 113.29C840.22 116.73 838.51 120.21 837.85 127.33C832.88 136.62 825.09 148.48 817.98 158.68ZM837.89 138.99C839.11 153.58 842.85 182.21 834.56 184.77C828.62 186.6 823.05 179.1 819.95 168.53C826.53 158.68 832.93 148.65 837.89 138.99ZM906.35 104.88C903.82 99.98 898.44 97.79 895.64 100.89C892.82 103.97 892.1 109.44 895.2 114.37C898.11 119.13 903.23 119.67 905.5 117.11C907.78 114.57 908.89 109.64 906.35 104.88ZM879.66 191.33C889.86 191.33 901.08 183.66 906.15 172.35C908.19 167.79 908.59 163.98 907.04 161.07C906.25 159.59 904.99 159.42 904.13 161.07C899.1 173.63 889.49 185.69 881.3 186.03C875.47 186.4 874.85 179.3 878.87 168.71C882.37 159.59 889.6 147.19 893.14 139.19C897.21 130.07 895.48 122.21 892.64 119.3C891.1 117.65 889.87 118.22 888.29 120.38C881.87 129.87 870.6 151.38 866.51 164.72C861.93 179.65 865.79 191.33 879.66 191.33ZM978.73 172.18C981.66 167.25 982.43 163.23 982 161.61C981.57 159.79 979.95 159.79 978.89 161.24C971.93 170.9 962.25 180.93 947.22 188.59C954.24 170.9 964.98 148.85 970.06 137.9C974.31 128.96 972.55 121.12 969.7 117.85C968.39 116.19 966.57 116.39 965.18 118.93C963.47 122.03 961.59 125.31 959.52 128.96C959.5 122.58 955.65 116.93 948.36 116.93C939.04 116.93 924.57 125.14 911.09 146.28C897.07 168.16 901.14 190.96 917.93 190.96C924.68 190.96 930.93 187.14 936.04 181.84C934.36 186.03 932.87 190.42 931.18 194.43C913.36 201.36 898.08 212.47 893.35 228.88C890.28 239.65 893.78 246.03 897.79 251.5C901.26 256.23 904.93 256.8 908.53 255.32C923.08 249.51 935 220.5 944.18 196.06C959.14 190.59 971.99 183.29 978.73 172.18ZM944.67 157.96C935.94 174 927.05 185.49 919.92 185.32C912.62 185.12 914.05 169.08 923.36 153.4C932.84 137.53 945.74 125.85 951.42 126.22C956.7 126.59 955.47 137.9 944.67 157.96ZM928.34 201.9C917.46 229.62 903.73 248.6 901.22 245.12C897.99 240.73 905.12 215.77 928.34 201.9ZM1004.05 134.97C1005.81 128.42 1005.8 122.21 1002.9 117.65C1001.73 115.82 1000.27 115.65 999.05 117.65C988.17 134.63 975.01 159.96 971.76 171.44C969.17 180.56 970.47 186.6 974.24 190.25C975.95 191.87 977.01 191.16 977.69 189.5C984.93 172.35 992.35 154.86 1002.68 143.18C1013.92 130.41 1024.31 125.31 1026.16 126.05C1029.49 127.51 1014.12 146.82 1008.74 164.72C1003.99 180.56 1008.03 191.87 1023.53 191.87C1034.13 191.87 1045.29 182.58 1049.86 172.35C1052.21 167.08 1052.44 162.89 1051.08 160.87C1050.12 159.42 1048.84 159.42 1047.99 161.07C1041.51 173.83 1033.01 185.86 1025.53 186.23C1018.99 186.6 1017.58 178.02 1021.97 167.45C1025.82 157.96 1034.3 144.46 1037.84 136.45C1042.06 126.96 1036.11 118.02 1030.04 117.11C1023.99 116.19 1011.95 126.22 1004.05 134.97ZM1092.97 158.68C1092.71 157.22 1092.66 155.77 1092.44 154.32C1092.14 151.38 1090.66 150.67 1088.53 152.49C1082.53 157.59 1082.41 169.62 1087.05 177.82C1093.66 189.13 1103.96 191.87 1114.51 191.5C1127.46 190.96 1139.61 184.03 1146.09 171.44C1149 165.8 1149.01 161.07 1148.24 159.42C1147.45 157.96 1145.6 157.42 1144.76 159.42C1140.55 169.28 1133.27 180.22 1121.23 184.77C1127.63 180.39 1128.65 172.72 1128.77 165.63C1128.87 153.03 1124.89 138.82 1125.59 122.03C1126.28 120.75 1126.79 119.67 1127.46 118.56C1129.71 114.37 1130.55 112.38 1128.66 110.55C1126.95 108.9 1122.79 109.64 1118.9 113.29C1115.2 116.73 1113.5 120.21 1112.84 127.33C1107.86 136.62 1100.07 148.48 1092.97 158.68ZM1112.88 138.99C1114.1 153.58 1117.84 182.21 1109.55 184.77C1103.6 186.6 1098.04 179.1 1094.93 168.53C1101.51 158.68 1107.91 148.65 1112.88 138.99ZM1214.15 172.01C1216.69 166.54 1216.56 162.69 1215.58 160.7C1214.78 159.25 1212.96 159.25 1212.28 160.87C1207.04 172.55 1197.48 185.69 1190.02 186.03C1183.28 186.4 1182.07 177.82 1186.26 167.25C1190.12 157.76 1198.4 144.46 1202.13 136.45C1206.54 127.13 1200.58 118.02 1194.34 117.3C1189.42 116.73 1180.14 122.78 1172.91 130.07C1180.34 117.85 1189.48 103.06 1193.59 95.76C1200.14 84.28 1200.36 75.16 1197.81 69.89C1196.82 67.7 1194.99 67.5 1193.42 69.69C1179.3 88.13 1143.6 152.29 1137.85 170.53C1134.42 181.47 1136.25 186.6 1139.27 189.88C1140.4 191.16 1141.67 190.79 1142.35 189.13C1146.32 178.02 1152.63 165.26 1158.83 154.49C1168.79 137.16 1188.22 124.77 1190.84 126.22C1193.8 127.88 1178.62 146.82 1173.2 164.52C1168.28 180.39 1172.52 191.5 1187.82 191.5C1198.59 191.5 1209.38 182.38 1214.15 172.01ZM1250.09 104.88C1247.55 99.98 1242.17 97.79 1239.38 100.89C1236.55 103.97 1235.83 109.44 1238.94 114.37C1241.84 119.13 1246.96 119.67 1249.23 117.11C1251.51 114.57 1252.62 109.64 1250.09 104.88ZM1223.4 191.33C1233.6 191.33 1244.81 183.66 1249.88 172.35C1251.92 167.79 1252.33 163.98 1250.77 161.07C1249.98 159.59 1248.72 159.42 1247.87 161.07C1242.83 173.63 1233.23 185.69 1225.03 186.03C1219.21 186.4 1218.59 179.3 1222.6 168.71C1226.1 159.59 1233.33 147.19 1236.87 139.19C1240.94 130.07 1239.21 122.21 1236.37 119.3C1234.83 117.65 1233.6 118.22 1232.02 120.38C1225.6 129.87 1214.33 151.38 1210.24 164.72C1205.66 179.65 1209.52 191.33 1223.4 191.33ZM1274.66 134.97C1276.42 128.42 1276.41 122.21 1273.51 117.65C1272.34 115.82 1270.88 115.65 1269.66 117.65C1258.78 134.63 1245.62 159.96 1242.37 171.44C1239.78 180.56 1241.08 186.6 1244.85 190.25C1246.56 191.87 1247.62 191.16 1248.3 189.5C1255.54 172.35 1262.96 154.86 1273.29 143.18C1284.53 130.41 1294.92 125.31 1296.77 126.05C1300.1 127.51 1284.73 146.82 1279.35 164.72C1274.6 180.56 1278.64 191.87 1294.14 191.87C1304.74 191.87 1315.9 182.58 1320.47 172.35C1322.82 167.08 1323.05 162.89 1321.69 160.87C1320.73 159.42 1319.45 159.42 1318.6 161.07C1312.12 173.83 1303.62 185.86 1296.14 186.23C1289.6 186.6 1288.19 178.02 1292.58 167.45C1296.43 157.96 1304.91 144.46 1308.45 136.45C1312.67 126.96 1306.72 118.02 1300.64 117.11C1294.6 116.19 1282.56 126.22 1274.66 134.97ZM1333.07 157.42C1346.2 167.79 1358.26 163.06 1366.79 152.12C1374.13 142.83 1375.2 131.69 1371.77 127.33C1368.72 123.32 1365.32 120.58 1360.66 117.85C1351.36 112.55 1333.12 122.03 1322.09 145.57C1311.06 169.08 1319.86 191.87 1343.01 191.5C1357.05 191.33 1370.81 182.95 1378.05 171.81C1381.19 167.08 1381.56 161.98 1380.76 160.5C1379.99 158.88 1378.51 158.88 1377.65 160.33C1370.24 172.35 1357.44 186.94 1342.29 186.23C1332.61 185.69 1327.82 174.18 1333.07 157.42ZM1334.56 153.4C1334.89 152.49 1335.4 151.38 1335.93 150.3C1343.87 132.98 1358.65 122.03 1362.57 125.14C1365.21 127.13 1361.52 136.62 1355.95 144.29C1350.89 151.21 1343.7 159.05 1334.56 153.4ZM1381.81 158.68C1381.56 157.22 1381.51 155.77 1381.29 154.32C1380.99 151.38 1379.51 150.67 1377.38 152.49C1371.37 157.59 1371.25 169.62 1375.9 177.82C1382.51 189.13 1392.8 191.87 1403.36 191.5C1416.3 190.96 1428.46 184.03 1434.94 171.44C1437.85 165.8 1437.85 161.07 1437.08 159.42C1436.29 157.96 1434.45 157.42 1433.61 159.42C1429.39 169.28 1422.11 180.22 1410.08 184.77C1416.48 180.39 1417.49 172.72 1417.61 165.63C1417.71 153.03 1413.74 138.82 1414.43 122.03C1415.13 120.75 1415.63 119.67 1416.31 118.56C1418.55 114.37 1419.4 112.38 1417.51 110.55C1415.8 108.9 1411.64 109.64 1407.75 113.29C1404.05 116.73 1402.35 120.21 1401.68 127.33C1396.71 136.62 1388.92 148.48 1381.81 158.68ZM1401.72 138.99C1402.94 153.58 1406.68 182.21 1398.39 184.77C1392.45 186.6 1386.88 179.1 1383.78 168.53C1390.36 158.68 1396.76 148.65 1401.72 138.99Z" />
      <path d="M458.73 322.62C469.48 331.46 479.96 327.43 487.7 318.1C494.35 310.19 495.73 300.69 492.99 296.98C490.57 293.55 487.79 291.22 483.94 288.89C476.23 284.37 460.28 292.46 449.88 312.52C439.47 332.55 446.01 351.98 465.75 351.66C477.73 351.52 489.81 344.38 496.46 334.88C499.33 330.85 499.86 326.51 499.25 325.24C498.66 323.86 497.4 323.86 496.6 325.1C489.77 335.35 478.25 347.78 465.36 347.17C457.13 346.71 453.54 336.9 458.73 322.62ZM460.17 319.2C460.5 318.42 460.97 317.47 461.47 316.55C468.98 301.79 482.04 292.46 485.25 295.11C487.41 296.81 483.87 304.89 478.79 311.43C474.19 317.33 467.72 324.01 460.17 319.2ZM517.73 347.63C512.6 357.73 508.4 367.69 506.45 374.2C503.67 383.06 505.5 386.02 507.62 388.5C508.7 389.74 509.62 389.59 510.43 387.89C523.15 358.51 542.14 326.51 551.86 309.56C557.12 300.38 557.4 293.55 555.59 289.67C554.37 287.94 553.43 287.48 551.71 289.21C550.28 290.59 547.57 294.48 544.88 299.14C545.43 293.38 542.4 287.94 535.55 287.94C527.78 287.94 515.1 295.11 502.54 312.98C489.36 331.95 492.03 351.52 506.48 351.52C510.36 351.52 514.27 349.96 517.73 347.63ZM530.99 323.08C522.85 336.9 514.64 346.71 508.25 346.71C502.2 346.71 504.26 332.55 512.86 319.2C521.62 305.53 533.11 295.57 538.08 295.88C542.59 296.2 541.04 305.99 530.99 323.08ZM582.37 336.61C581 345.62 584.96 351.98 595.06 351.98C604.22 351.98 613.98 344.06 618.62 335.35C620.85 331 620.77 326.8 620.16 325.56C619.57 324.18 618.16 324.32 617.36 325.73C611.13 336.61 603.06 346.86 596.52 347.17C590.93 347.49 590.4 340.95 594.58 332.09C598.27 324.18 606.22 312.52 609.75 305.53C613.58 297.75 612.44 290.91 610.15 288.11C608.94 286.56 607.84 286.88 606.25 289.04C601.18 295.71 596.52 306.45 586.47 322.31C577.89 335.83 569.18 346.71 563.12 346.22C559.55 345.93 559.18 340.32 562.54 332.72C565.94 325.24 569.14 319.03 575.01 309.87C580.75 301.01 581.63 294.02 578.28 288.89C577.07 287.48 575.51 287.34 574.25 289.04C563.93 303.19 555.77 318.42 552.19 328.67C548.63 338.94 548.75 350.43 559.79 351.2C568.47 351.83 576.83 343.89 582.37 336.61ZM665.64 298.68C666.03 292.61 662.99 287.48 656.32 287.48C648.55 287.48 636.18 294.48 623.3 312.81C610.12 331.63 612.79 351.37 627.24 351.37C634.69 351.37 641.77 345.62 646.85 339.23C646.74 346.54 651.01 351.52 659.4 351.98C667.94 352.44 677.86 343.89 682.02 335.35C684.1 331 684.16 327.11 683.57 325.73C682.96 324.32 681.87 324.47 681.07 325.87C675.47 336.61 666.76 347.17 660.39 347.49C655.1 347.78 655.37 341.1 659.38 332.41C663.22 324.18 671.17 312.52 674.7 305.53C678.55 297.75 677.41 291.05 675.12 288.26C674.05 286.88 672.81 287.17 671.37 289.21C669.63 291.68 667.71 294.94 665.64 298.68ZM651.76 322.77C643.61 336.44 635.4 346.39 629.01 346.22C622.97 346.08 625.19 332.41 633.62 319.03C642.38 305.21 653.87 295.11 658.84 295.57C663.35 296.03 661.8 305.67 651.76 322.77ZM693.47 318.1C707.44 309.1 725.13 290.45 730.23 271.33C732.21 264.03 731.35 258.27 726.92 254.24C724.76 252.2 722.6 252.51 720.23 255.02C704.12 271.48 685.97 299.6 679.81 326.65C675.99 343.43 681.63 350.89 692.36 351.2C704.79 351.52 716.33 338.62 718.56 333.96C720.34 330.22 721 326.8 720.26 324.32C719.68 322.14 717.95 322.31 716.86 324.32C710.61 336.29 699.56 347.49 692.11 346.86C685.13 346.22 687.02 333.33 693.47 318.1ZM696.36 311.43C697.49 308.93 698.77 306.45 700.21 303.97C711.24 284.06 722.99 266.82 724.98 268.06C727.01 269.29 717.92 294.16 696.36 311.43ZM729.21 318.1C743.19 309.1 760.88 290.45 765.97 271.33C767.95 264.03 767.09 258.27 762.66 254.24C760.51 252.2 758.34 252.51 755.97 255.02C739.87 271.48 721.72 299.6 715.56 326.65C711.74 343.43 717.38 350.89 728.11 351.2C740.54 351.52 752.07 338.62 754.3 333.96C756.08 330.22 756.74 326.8 756 324.32C755.43 322.14 753.7 322.31 752.6 324.32C746.35 336.29 735.3 347.49 727.86 346.86C720.87 346.22 722.77 333.33 729.21 318.1ZM732.1 311.43C733.23 308.93 734.51 306.45 735.96 303.97C746.99 284.06 758.73 266.82 760.73 268.06C762.75 269.29 753.66 294.16 732.1 311.43ZM809.47 334.11C812.18 330.08 812.69 326.51 812.42 325.1C812.13 323.54 810.72 323.69 809.93 324.78C803.58 333.33 794.29 342.19 782.05 348.73C788.81 333.65 798.59 315 803.39 305.99C807.54 298.05 806.4 291.37 804.25 288.58C802.89 287.34 801.79 287.65 800.35 289.67C794.79 297.58 787.91 311.57 781.06 323.08C772.91 336.61 764.99 346.54 758.95 346.08C755.39 345.76 755.15 340.32 758.38 332.72C761.42 325.41 764.94 319.03 770.69 310.02C776.56 300.86 777.6 294.33 773.94 289.35C772.87 287.8 771.31 287.65 770.05 289.35C759.74 303.34 751.91 318.74 748.33 328.67C744.61 338.94 744.73 350.28 755.91 351.2C762.12 351.66 768.08 347.63 772.99 342.65C771.21 346.39 769.6 350.28 767.99 353.85C752.53 359.92 739.18 369.24 734.31 383.23C731.06 392.39 734.09 397.83 737.13 402.49C740 406.84 742.96 406.84 745.94 405.77C758.91 400.79 770.31 375.75 779.34 354.94C792.31 349.65 803.28 343.75 809.47 334.11ZM765.27 360.38C755.29 383.23 742.28 400.16 740.31 397.22C737.58 393.33 744.89 372.04 765.27 360.38ZM892.86 298.68C893.24 292.61 890.21 287.48 883.53 287.48C875.76 287.48 863.39 294.48 850.51 312.81C837.34 331.63 840 351.37 854.45 351.37C861.91 351.37 868.99 345.62 874.06 339.23C873.95 346.54 878.22 351.52 886.62 351.98C895.16 352.44 905.07 343.89 909.23 335.35C911.31 331 911.37 327.11 910.79 325.73C910.18 324.32 909.08 324.47 908.28 325.87C902.68 336.61 893.98 347.17 887.61 347.49C882.31 347.78 882.58 341.1 886.6 332.41C890.44 324.18 898.38 312.52 901.91 305.53C905.77 297.75 904.63 291.05 902.34 288.26C901.27 286.88 900.02 287.17 898.58 289.21C896.85 291.68 894.93 294.94 892.86 298.68ZM878.97 322.77C870.82 336.44 862.61 346.39 856.23 346.22C850.18 346.08 852.41 332.41 860.84 319.03C869.59 305.21 881.08 295.11 886.06 295.57C890.57 296.03 889.01 305.67 878.97 322.77ZM944.28 289.21C936.58 284.54 920.74 292.92 910.52 312.52C900.12 332.55 906.5 351.83 926.25 351.52C938.05 351.37 950.46 343.75 956.5 334.57C959.2 330.39 959.87 326.51 959.43 325.24C958.84 323.69 957.43 323.86 956.64 325.1C950.13 334.88 938.75 347.32 925.68 347.17C916.53 347 913.45 334.11 922.26 316.55C929.46 302.42 941.27 292.46 943.88 294.65C946.04 296.35 941.28 303.02 939.47 308.63C937.21 315.63 939.3 320.29 943.01 322.14C945.01 323.23 945.65 322.77 946.28 320.9C949.52 312.52 955.86 304.26 952.7 297.75C950.88 294.16 948.44 291.68 944.28 289.21ZM979.7 300.09C983.74 290.28 985.11 281.27 980.3 281.44C974.54 281.58 960.74 299.92 969.52 305.67C963.64 313.9 953 328.52 949.33 335.35C945.01 343.29 944.9 350.43 949.35 355.09C950.74 356.5 951.67 355.72 952.01 354.31C955.16 340.18 970.42 318.1 976.49 307.23C981.15 307.23 987.85 305.82 994.76 301.32C988.44 308.46 979.27 319.51 975.69 329.76C971.63 341.42 975.97 351.66 987.15 352.15C995.38 352.44 1004.51 345.93 1008.22 336.9C1009.98 332.72 1009.89 328.98 1009.14 327.28C1008.53 326.02 1007.6 326.19 1006.95 327.43C1001.81 338.62 994.21 348.26 988.16 347.95C983.65 347.78 981.87 341.73 984.49 333.65C987.09 325.56 994.86 315.77 1001.98 307.86C1006.54 302.71 1002.93 295.88 1000.02 292.61C998.94 291.37 997.7 291.68 995.81 292.92C990 296.98 984.69 299.45 979.7 300.09ZM1058.27 315.77C1058.89 315 1058.9 314.22 1057.83 314.22C1056.57 314.22 1055.64 314.53 1054.72 314.53C1054.88 313.3 1054.9 312.2 1055.06 310.96C1056.18 299.77 1051.53 298.68 1048.03 293.87C1044.99 289.67 1042.36 288.26 1037.52 288.58C1028.19 289.21 1018.58 298.22 1012.52 308.78C1005.34 321.21 1002.81 334.74 1009.5 343.75C1015.59 351.83 1023.36 352.44 1028.99 350.6C1040.54 346.71 1050.58 331 1054.04 317.79C1055.59 317.64 1057.16 317.01 1058.27 315.77ZM1044.95 311.57C1042.51 309.24 1040.88 304.75 1041.72 300.55C1042.56 296.03 1045.68 295.11 1046.38 300.09C1046.8 302.88 1046.28 306.76 1044.95 311.57ZM1043.82 315.77C1042.5 319.51 1040.59 323.86 1038.19 328.21C1030.35 342.51 1020.8 347.95 1016.48 344.38C1012.5 340.95 1015.05 326.65 1021.76 314.85C1025.1 308.93 1029.69 303.8 1033.95 300.23C1034.01 305.99 1037.67 311.43 1040.88 313.9C1041.79 314.68 1042.73 315.31 1043.82 315.77ZM1062.66 323.69C1062.51 322.45 1062.53 321.21 1062.4 319.97C1062.27 317.47 1061.04 316.87 1059.14 318.42C1053.81 322.77 1053.2 333.01 1056.81 340.01C1061.95 349.65 1070.61 351.98 1079.63 351.66C1090.68 351.2 1101.33 345.3 1107.4 334.57C1110.12 329.76 1110.32 325.73 1109.74 324.32C1109.12 323.08 1107.58 322.62 1106.77 324.32C1102.76 332.72 1096.09 342.05 1085.64 345.93C1091.28 342.19 1092.47 335.66 1092.88 329.61C1093.5 318.88 1090.72 306.76 1092.03 292.46C1092.67 291.37 1093.15 290.45 1093.77 289.5C1095.86 285.93 1096.67 284.23 1095.13 282.67C1093.75 281.27 1090.17 281.9 1086.7 285.01C1083.4 287.94 1081.8 290.91 1080.93 296.98C1076.3 304.89 1069.15 315 1062.66 323.69ZM1080.47 306.91C1080.89 319.34 1082.85 343.75 1075.68 345.93C1070.53 347.49 1066.11 341.1 1063.92 332.09C1069.94 323.69 1075.83 315.14 1080.47 306.91ZM1109.59 323.69C1109.44 322.45 1109.46 321.21 1109.33 319.97C1109.2 317.47 1107.97 316.87 1106.08 318.42C1100.75 322.77 1100.13 333.01 1103.74 340.01C1108.89 349.65 1117.55 351.98 1126.56 351.66C1137.62 351.2 1148.27 345.3 1154.33 334.57C1157.05 329.76 1157.26 325.73 1156.67 324.32C1156.06 323.08 1154.51 322.62 1153.71 324.32C1149.7 332.72 1143.02 342.05 1132.57 345.93C1138.21 342.19 1139.41 335.66 1139.81 329.61C1140.43 318.88 1137.65 306.76 1138.96 292.46C1139.61 291.37 1140.08 290.45 1140.7 289.5C1142.8 285.93 1143.6 284.23 1142.07 282.67C1140.68 281.27 1137.1 281.9 1133.63 285.01C1130.33 287.94 1128.74 290.91 1127.87 296.98C1123.23 304.89 1116.09 315 1109.59 323.69ZM1127.4 306.91C1127.82 319.34 1129.79 343.75 1122.62 345.93C1117.47 347.49 1113.05 341.1 1110.85 332.09C1116.88 323.69 1122.76 315.14 1127.4 306.91ZM1198.97 322.62C1209.71 331.46 1220.19 327.43 1227.93 318.1C1234.58 310.19 1235.97 300.69 1233.23 296.98C1230.8 293.55 1228.02 291.22 1224.17 288.89C1216.47 284.37 1200.51 292.46 1190.11 312.52C1179.71 332.55 1186.24 351.98 1205.99 351.66C1217.96 351.52 1230.04 344.38 1236.69 334.88C1239.57 330.85 1240.09 326.51 1239.48 325.24C1238.9 323.86 1237.63 323.86 1236.84 325.1C1230.01 335.35 1218.48 347.78 1205.59 347.17C1197.37 346.71 1193.78 336.9 1198.97 322.62ZM1200.4 319.2C1200.73 318.42 1201.21 317.47 1201.71 316.55C1209.21 301.79 1222.27 292.46 1225.49 295.11C1227.65 296.81 1224.1 304.89 1219.02 311.43C1214.42 317.33 1207.96 324.01 1200.4 319.2ZM1244.63 344.67C1247.07 327.74 1250.31 319.03 1253.28 307.08C1255.61 297.58 1254.92 291.83 1249.83 287.48C1248.61 286.39 1247.37 287.02 1246.71 288.72C1241.2 304.89 1236.66 327.11 1235.87 337.99C1235.28 346.22 1237.42 349.33 1243.42 352.3C1244.97 353.07 1245.76 351.98 1246.55 350.74C1261.84 327.11 1276.2 312.2 1284.12 302.42C1289.19 296.2 1291.12 292.15 1290.71 288.89C1290.42 286.88 1289.48 286.56 1287.75 288.26C1277.03 299.14 1255.95 326.51 1244.63 344.67ZM1295.32 322.62C1306.07 331.46 1316.55 327.43 1324.29 318.1C1330.94 310.19 1332.32 300.69 1329.58 296.98C1327.16 293.55 1324.38 291.22 1320.53 288.89C1312.82 284.37 1296.87 292.46 1286.47 312.52C1276.06 332.55 1282.6 351.98 1302.34 351.66C1314.32 351.52 1326.4 344.38 1333.05 334.88C1335.92 330.85 1336.45 326.51 1335.84 325.24C1335.25 323.86 1333.99 323.86 1333.19 325.1C1326.36 335.35 1314.84 347.78 1301.95 347.17C1293.73 346.71 1290.13 336.9 1295.32 322.62ZM1296.76 319.2C1297.09 318.42 1297.56 317.47 1298.06 316.55C1305.57 301.79 1318.63 292.46 1321.84 295.11C1324 296.81 1320.46 304.89 1315.38 311.43C1310.78 317.33 1304.31 324.01 1296.76 319.2ZM1356.74 300.09C1360.77 290.28 1362.14 281.27 1357.33 281.44C1351.57 281.58 1337.77 299.92 1346.55 305.67C1340.67 313.9 1330.03 328.52 1326.36 335.35C1322.04 343.29 1321.94 350.43 1326.38 355.09C1327.77 356.5 1328.7 355.72 1329.04 354.31C1332.19 340.18 1347.46 318.1 1353.52 307.23C1358.18 307.23 1364.88 305.82 1371.8 301.32C1365.47 308.46 1356.3 319.51 1352.72 329.76C1348.66 341.42 1353 351.66 1364.19 352.15C1372.41 352.44 1381.55 345.93 1385.25 336.9C1387.01 332.72 1386.92 328.98 1386.17 327.28C1385.56 326.02 1384.63 326.19 1383.98 327.43C1378.84 338.62 1371.24 348.26 1365.2 347.95C1360.68 347.78 1358.9 341.73 1361.53 333.65C1364.12 325.56 1371.9 315.77 1379.01 307.86C1383.58 302.71 1379.96 295.88 1377.05 292.61C1375.98 291.37 1374.73 291.68 1372.85 292.92C1367.03 296.98 1361.72 299.45 1356.74 300.09ZM1441.85 334.11C1444.56 330.08 1445.07 326.51 1444.8 325.1C1444.51 323.54 1443.1 323.69 1442.3 324.78C1435.96 333.33 1426.67 342.19 1414.43 348.73C1421.19 333.65 1430.96 315 1435.76 305.99C1439.91 298.05 1438.77 291.37 1436.63 288.58C1435.26 287.34 1434.17 287.65 1432.73 289.67C1427.17 297.58 1420.28 311.57 1413.43 323.08C1405.29 336.61 1397.37 346.54 1391.33 346.08C1387.76 345.76 1387.53 340.32 1390.75 332.72C1393.8 325.41 1397.32 319.03 1403.06 310.02C1408.93 300.86 1409.98 294.33 1406.31 289.35C1405.24 287.8 1403.69 287.65 1402.43 289.35C1392.12 303.34 1384.28 318.74 1380.71 328.67C1376.99 338.94 1377.11 350.28 1388.29 351.2C1394.5 351.66 1400.46 347.63 1405.37 342.65C1403.59 346.39 1401.98 350.28 1400.37 353.85C1384.91 359.92 1371.56 369.24 1366.68 383.23C1363.44 392.39 1366.46 397.83 1369.5 402.49C1372.38 406.84 1375.34 406.84 1378.32 405.77C1391.29 400.79 1402.69 375.75 1411.72 354.94C1424.69 349.65 1435.66 343.75 1441.85 334.11ZM1397.65 360.38C1387.66 383.23 1374.66 400.16 1372.69 397.22C1369.96 393.33 1377.27 372.04 1397.65 360.38Z" />
      <path d="M870.36 489.64C879.29 469.86 896.57 439.09 905.19 423.06C912.75 409.07 913.14 401.06 910.43 394.91C909.45 392.46 907.75 392.29 905.94 394.91C899.43 404.41 885.74 429.76 876.07 448.99C876.11 442.09 872.27 436.29 864.63 436.29C855.31 436.29 840.55 444.68 826.24 466.33C811.39 488.71 815.25 512.4 832.58 512.4C841.35 512.4 849.61 505.5 855.4 498.04C855.58 506.81 860.73 512.4 870.83 512.96C881.09 513.51 892.47 503.63 897.27 493.37C899.62 488.33 899.32 483.5 898.56 481.81C897.77 480.32 896.46 480.32 895.56 481.98C889.29 494.86 879.49 507.36 871.83 507.74C865.51 508.09 865.54 500.46 870.36 489.64ZM867.79 445.82C873.22 445.99 870.65 457.74 860.26 478.46C851.83 495.41 841.96 506.43 834.5 506.23C827.24 506.05 828.96 489.82 838.72 473.79C848.65 457.39 862.02 445.61 867.79 445.82ZM935.44 424.17C932.92 419.16 927.46 416.91 924.55 420.09C921.61 423.23 920.79 428.83 923.89 433.87C926.79 438.74 932.02 439.29 934.38 436.67C936.75 434.07 937.96 429.03 935.44 424.17ZM906.82 512.58C917.25 512.58 928.84 504.74 934.2 493.17C936.35 488.51 936.83 484.6 935.28 481.63C934.49 480.12 933.21 479.94 932.31 481.63C926.97 494.48 916.96 506.81 908.57 507.16C902.61 507.54 902.08 500.28 906.36 489.44C910.07 480.12 917.66 467.44 921.4 459.25C925.7 449.93 924.05 441.88 921.2 438.91C919.65 437.22 918.38 437.8 916.73 440.02C910.02 449.72 898.16 471.72 893.77 485.36C888.86 500.63 892.63 512.58 906.82 512.58ZM938.04 479.18C937.81 477.7 937.78 476.21 937.57 474.73C937.31 471.72 935.81 471 933.6 472.86C927.38 478.08 927.08 490.37 931.7 498.77C938.29 510.33 948.77 513.13 959.58 512.75C972.82 512.2 985.36 505.12 992.18 492.24C995.24 486.47 995.32 481.63 994.56 479.94C993.77 478.46 991.9 477.9 991 479.94C986.54 490.02 978.93 501.21 966.55 505.88C973.16 501.39 974.32 493.55 974.55 486.29C974.85 473.41 971 458.87 971.97 441.71C972.7 440.4 973.23 439.29 973.94 438.15C976.3 433.87 977.19 431.83 975.29 429.97C973.56 428.28 969.3 429.03 965.26 432.76C961.43 436.29 959.63 439.84 958.85 447.13C953.62 456.63 945.47 468.75 938.04 479.18ZM958.71 459.05C959.73 473.97 963.12 503.25 954.6 505.88C948.49 507.74 942.92 500.08 939.9 489.27C946.78 479.18 953.48 468.93 958.71 459.05ZM1032.32 437.8C1022.88 432.21 1004.23 442.26 992.78 465.78C981.14 489.82 989.62 512.96 1013.3 512.58C1027.46 512.4 1042.02 503.25 1048.88 492.24C1051.96 487.23 1052.59 482.56 1052.01 481.05C1051.24 479.18 1049.56 479.39 1048.66 480.87C1041.26 492.62 1028.12 507.54 1012.44 507.36C1001.45 507.16 997.21 491.68 1007.04 470.62C1015.1 453.66 1028.84 441.71 1032.07 444.33C1034.74 446.37 1029.3 454.39 1027.37 461.12C1024.94 469.51 1027.65 475.1 1032.18 477.32C1034.62 478.63 1035.37 478.08 1036.05 475.83C1039.58 465.78 1046.84 455.87 1042.78 448.06C1040.45 443.75 1037.42 440.78 1032.32 437.8ZM1087.25 424.17C1084.73 419.16 1079.27 416.91 1076.36 420.09C1073.42 423.23 1072.6 428.83 1075.7 433.87C1078.6 438.74 1083.82 439.29 1086.19 436.67C1088.56 434.07 1089.77 429.03 1087.25 424.17ZM1058.63 512.58C1069.06 512.58 1080.64 504.74 1086.01 493.17C1088.16 488.51 1088.63 484.6 1087.09 481.63C1086.3 480.12 1085.02 479.94 1084.12 481.63C1078.78 494.48 1068.77 506.81 1060.38 507.16C1054.42 507.54 1053.89 500.28 1058.16 489.44C1061.88 480.12 1069.47 467.44 1073.21 459.25C1077.51 449.93 1075.86 441.88 1073.01 438.91C1071.46 437.22 1070.19 437.8 1068.54 440.02C1061.83 449.72 1049.97 471.72 1045.58 485.36C1040.67 500.63 1044.44 512.58 1058.63 512.58ZM1122.15 509.02C1129.15 504.74 1135.87 495.79 1141.22 483.5C1147.79 468.2 1151.57 451.59 1142.43 442.09C1134.25 433.7 1123.34 438.91 1115.29 445.99C1115.41 442.82 1114.97 440.02 1113.99 437.6C1113.01 435.36 1111.35 435.01 1109.53 437.43C1098.07 453.07 1067.93 512.2 1062.69 530.3C1059.39 541.66 1060.43 546.91 1063.31 550.81C1064.45 552.5 1065.75 552.12 1066.45 550.43C1075.01 529.74 1084.13 510.71 1092.58 494.69C1093.22 499.35 1095.18 503.63 1099.15 507.16C1105.8 513.13 1113.67 514.82 1125.6 514.06C1139.02 513.13 1151.57 506.98 1158.39 494.1C1161.45 488.33 1160.98 483.5 1160.57 481.81C1160.15 479.94 1158.1 479.18 1157.04 481.81C1151.32 494.48 1140.4 507.92 1122.15 509.02ZM1102.64 476.04C1104.8 472.1 1106.77 468.75 1108.78 465.4C1117.26 451.03 1128.61 441.71 1133.15 443.95C1137.85 446.2 1136.12 461.67 1129.14 476.59C1120.72 494.48 1108.87 508.09 1102.8 503.25C1097.5 498.97 1098.21 487.78 1102.64 476.04ZM1173.25 472.48C1189.64 461.67 1210.09 439.29 1215.4 416.36C1217.47 407.59 1216.19 400.68 1210.7 395.84C1208.03 393.4 1205.45 393.77 1202.71 396.78C1184.08 416.53 1163.48 450.28 1157.22 482.74C1153.34 502.87 1160.43 511.82 1173.31 512.2C1188.24 512.58 1201.54 497.1 1204.02 491.51C1206 487.02 1206.65 482.91 1205.66 479.94C1204.87 477.32 1202.81 477.52 1201.58 479.94C1194.58 494.31 1181.79 507.74 1172.83 506.98C1164.42 506.23 1166.15 490.75 1173.25 472.48ZM1176.44 464.47C1177.69 461.47 1179.12 458.49 1180.75 455.52C1193.15 431.63 1206.52 410.94 1208.97 412.42C1211.44 413.91 1201.58 443.75 1176.44 464.47ZM1240.18 424.17C1237.66 419.16 1232.19 416.91 1229.29 420.09C1226.35 423.23 1225.53 428.83 1228.63 433.87C1231.52 438.74 1236.75 439.29 1239.12 436.67C1241.48 434.07 1242.69 429.03 1240.18 424.17ZM1211.55 512.58C1221.99 512.58 1233.57 504.74 1238.94 493.17C1241.09 488.51 1241.56 484.6 1240.02 481.63C1239.23 480.12 1237.94 479.94 1237.04 481.63C1231.71 494.48 1221.69 506.81 1213.31 507.16C1207.34 507.54 1206.82 500.28 1211.09 489.44C1214.81 480.12 1222.39 467.44 1226.13 459.25C1230.44 449.93 1228.79 441.88 1225.93 438.91C1224.38 437.22 1223.11 437.8 1221.47 440.02C1214.75 449.72 1202.9 471.72 1198.51 485.36C1193.6 500.63 1197.36 512.58 1211.55 512.58ZM1264.85 454.94C1266.75 448.24 1266.83 441.88 1263.94 437.22C1262.76 435.36 1261.27 435.18 1260 437.22C1248.61 454.59 1234.76 480.5 1231.26 492.24C1228.48 501.56 1229.71 507.74 1233.51 511.47C1235.24 513.13 1236.33 512.4 1237.05 510.71C1244.72 493.17 1252.58 475.28 1263.32 463.33C1275.01 450.28 1285.72 445.06 1287.6 445.82C1290.98 447.3 1274.97 467.06 1269.18 485.36C1264.09 501.56 1268.05 513.13 1283.9 513.13C1294.74 513.13 1306.29 503.63 1311.13 493.17C1313.61 487.78 1313.91 483.5 1312.55 481.43C1311.59 479.94 1310.28 479.94 1309.38 481.63C1302.56 494.69 1293.69 506.98 1286.03 507.36C1279.33 507.74 1278.02 498.97 1282.67 488.16C1286.76 478.46 1295.64 464.64 1299.38 456.45C1303.85 446.75 1297.89 437.6 1291.7 436.67C1285.53 435.74 1273.06 445.99 1264.85 454.94ZM1324.24 477.9C1337.51 488.51 1349.91 483.67 1358.81 472.48C1366.46 462.98 1367.72 451.59 1364.28 447.13C1361.22 443.02 1357.79 440.22 1353.07 437.43C1343.64 432.01 1324.83 441.71 1313.19 465.78C1301.55 489.82 1310.2 513.13 1333.89 512.75C1348.25 512.58 1362.44 504.01 1370.03 492.62C1373.31 487.78 1373.76 482.56 1372.97 481.05C1372.21 479.39 1370.69 479.39 1369.79 480.87C1362.02 493.17 1348.71 508.09 1333.22 507.36C1323.34 506.81 1318.61 495.04 1324.24 477.9ZM1325.82 473.79C1326.18 472.86 1326.71 471.72 1327.27 470.62C1335.66 452.9 1350.94 441.71 1354.91 444.89C1357.57 446.93 1353.66 456.63 1347.84 464.47C1342.56 471.55 1335.09 479.56 1325.82 473.79ZM1378.43 501.77C1376.47 506.23 1377.69 511.65 1381.45 512.96C1385.2 514.27 1389.98 511.27 1391.95 506.43C1393.89 501.39 1392.69 496.55 1388.93 495.24C1385.17 493.93 1380.57 496.73 1378.43 501.77Z" />
  </g>
</svg>
